HIERARCHY
ROOT RootJoint
{
    OFFSET   0.000000   0.000000   0.000000
    CHANNELS 6 Xposition Yposition Zposition Xrotation Yrotation Zrotation
    JOINT pelvis_lowerback
    {
        OFFSET   0.000000   0.093605   0.000000
        CHANNELS 3 Xrotation Yrotation Zrotation
        JOINT lowerback_torso
        {
            OFFSET   0.000000   0.100000   0.000000
            CHANNELS 3 Xrotation Yrotation Zrotation
            JOINT torso_head
            {
                OFFSET   0.000000   0.282350   0.000000
                CHANNELS 3 Xrotation Yrotation Zrotation
                End Site
                {
                    OFFSET   0.000000   0.192650   0.000000
                }
            }
            JOINT rTorso_Clavicle
            {
                OFFSET  -0.001000   0.157500   0.000000
                CHANNELS 3 Xrotation Yrotation Zrotation
                JOINT rShoulder
                {
                    OFFSET  -0.117647   0.000000   0.000000
                    CHANNELS 3 Xrotation Yrotation Zrotation
                    JOINT rElbow
                    {
                        OFFSET  -0.245000   0.000000   0.000000
                        CHANNELS 3 Xrotation Yrotation Zrotation
                        JOINT rWrist
                        {
                            OFFSET  -0.240000   0.000000   0.000000
                            CHANNELS 3 Xrotation Yrotation Zrotation
                            End Site
                            {
                                OFFSET  -0.116353  -0.002500   0.000000
                            }
                        }
                    }
                }
            }
            JOINT lTorso_Clavicle
            {
                OFFSET   0.001000   0.157500   0.000000
                CHANNELS 3 Xrotation Yrotation Zrotation
                JOINT lShoulder
                {
                    OFFSET   0.117647   0.000000   0.000000
                    CHANNELS 3 Xrotation Yrotation Zrotation
                    JOINT lElbow
                    {
                        OFFSET   0.245000   0.000000   0.000000
                        CHANNELS 3 Xrotation Yrotation Zrotation
                        JOINT lWrist
                        {
                            OFFSET   0.240000   0.000000   0.000000
                            CHANNELS 3 Xrotation Yrotation Zrotation
                            End Site
                            {
                                OFFSET   0.116353  -0.002500   0.000000
                            }
                        }
                    }
                }
            }
        }
    }
    JOINT rHip
    {
        OFFSET  -0.100000  -0.051395   0.000000
        CHANNELS 3 Xrotation Yrotation Zrotation
        JOINT rKnee
        {
            OFFSET   0.000000  -0.410000   0.000000
            CHANNELS 3 Xrotation Yrotation Zrotation
            JOINT rAnkle
            {
                OFFSET   0.000000  -0.390000   0.000000
                CHANNELS 3 Xrotation Yrotation Zrotation
                JOINT rToeJoint
                {
                    OFFSET   0.000000  -0.050000   0.130000
                    CHANNELS 3 Xrotation Yrotation Zrotation
                    End Site
                    {
                        OFFSET  -0.010000   0.002000   0.060000
                    }
                }
            }
        }
    }
    JOINT lHip
    {
        OFFSET   0.100000  -0.051395   0.000000
        CHANNELS 3 Xrotation Yrotation Zrotation
        JOINT lKnee
        {
            OFFSET   0.000000  -0.410000   0.000000
            CHANNELS 3 Xrotation Yrotation Zrotation
            JOINT lAnkle
            {
                OFFSET   0.000000  -0.390000   0.000000
                CHANNELS 3 Xrotation Yrotation Zrotation
                JOINT lToeJoint
                {
                    OFFSET   0.000000  -0.050000   0.130000
                    CHANNELS 3 Xrotation Yrotation Zrotation
                    End Site
                    {
                        OFFSET   0.010000   0.002000   0.060000
                    }
                }
            }
        }
    }
}
MOTION
Frames: 17
Frame Time:   0.008333
 -2.471864   0.923762   3.778893 -10.619589 -23.961239  -2.809385  15.461760   6.006043   1.150722   7.283486   1.388820   1.946418   3.062547  -0.154950   2.921035   0.973620  -0.673907   5.232856  -8.356022   4.883170  45.662607  -0.061189  62.856303   0.059924   0.937545   3.732104  -3.788056   9.050093   7.204308  -6.432850  18.308957  -0.773090 -53.722908   0.002272 -24.405836  -0.002219   4.677022  -1.598996  -3.274202   7.628907   2.822638  -0.400846   4.193263   0.000109   0.001819  -1.584977   1.565301  -0.551091  -0.640719  -0.000035  -0.003142 -19.691061  -1.942816   3.383161  92.952560  -0.011736  -0.009074 -11.104038  -4.675403  -1.273967  -0.806065  -0.000040   0.000032
 -2.471008   0.923807   3.777687 -10.681809 -23.992731  -2.832029  15.313247   6.011078   1.181985   7.414354   1.446965   1.987567   3.151178  -0.211407   2.849873   0.998824  -0.755381   5.219081  -8.663623   4.760188  45.456899  -0.061586  64.087669   0.059170   0.907158   3.739931  -3.913382   9.136813   7.307006  -6.298591  18.584807  -0.657659 -53.740718   0.002151 -24.169344  -0.001546   4.699312  -1.609214  -3.345089   7.641372   2.960652  -0.428048   4.070296   0.000052   0.001345  -1.414437   1.462292  -0.523277  -0.654201  -0.000027  -0.002514 -19.421205  -1.960149   3.306439  93.414739  -0.009725  -0.007539 -10.910583  -4.828531  -1.202169  -0.869024  -0.000006   0.000154
 -2.470165   0.923787   3.776553 -10.728601 -23.991803  -2.865618  15.140753   6.005578   1.238490   7.525760   1.497678   2.028932   3.237855  -0.265109   2.780020   1.021110  -0.848306   5.186161  -8.952747   4.640528  45.248979  -0.061909  65.244907   0.058385   0.882452   3.800528  -4.056869   9.227800   7.416823  -6.166716  18.851026  -0.541787 -53.756004   0.002031 -23.947156  -0.000961   4.718837  -1.623916  -3.393792   7.624457   3.062633  -0.433601   3.991915   0.000020   0.001010  -1.250333   1.337946  -0.500295  -0.793955  -0.000022  -0.001978 -19.099091  -2.006176   3.266801  93.692112  -0.007959  -0.006138 -10.732214  -4.969822  -1.133476  -0.912576   0.000016   0.000198
 -2.469304   0.923745   3.775439 -10.759174 -23.954432  -2.904946  14.961212   5.991773   1.308874   7.615190   1.538706   2.074283   3.316107  -0.315590   2.716231   1.039767  -0.943584   5.143262  -9.224698   4.524801  45.043440  -0.061548  66.324953   0.057087   0.859972   3.868549  -4.223370   9.315586   7.523298  -6.041774  19.102303  -0.430760 -53.769241   0.001895 -23.738496  -0.000478   4.737480  -1.632743  -3.431198   7.596018   3.152075  -0.420261   3.922394  -0.000003   0.000736  -1.121281   1.217900  -0.488110  -0.789158  -0.000017  -0.001583 -18.768270  -2.063878   3.254168  93.893756  -0.006444  -0.004950 -10.566617  -5.100689  -1.068453  -0.948741   0.000022   0.000208
 -2.468404   0.923688   3.774327 -10.778043 -23.894361  -2.942279  14.782782   5.975504   1.380854   7.688433   1.573611   2.118876   3.387026  -0.362797   2.657743   1.055212  -1.036439   5.095502  -9.480435   4.415182  44.844797  -0.060366  67.332785   0.055179   0.838854   3.933976  -4.402120   9.397461   7.623667  -5.923680  19.337028  -0.326489 -53.781129   0.001740 -23.543721  -0.000098   4.755156  -1.640135  -3.462368   7.557081   3.223787  -0.403352   3.857020  -0.000021   0.000518  -0.995177   1.093046  -0.475977  -0.786721  -0.000013  -0.001266 -18.440119  -2.120491   3.254749  94.060339  -0.005180  -0.003975 -10.412262  -5.222387  -1.007328  -0.980175   0.000020   0.000202
 -2.467455   0.923623   3.773212 -10.789073 -23.817960  -2.976578  14.609697   5.958608   1.450594   7.750144   1.604255   2.160691   3.451957  -0.406883   2.603651   1.068138  -1.124766   5.046362  -9.720582   4.312524  44.655347  -0.058416  68.273264   0.052717   0.818833   3.995629  -4.584365   9.472574   7.717103  -5.813111  19.555149  -0.229562 -53.792333   0.001570 -23.362437   0.000189   4.771802  -1.649300  -3.489654   7.510041   3.280972  -0.386998   3.795334  -0.000036   0.000346  -0.870588   0.966339  -0.463252  -0.786283  -0.000010  -0.001013 -18.119254  -2.173648   3.262766  94.208223  -0.004138  -0.003182 -10.268099  -5.335725  -0.949972  -1.007868   0.000013   0.000188
 -2.466454   0.923552   3.772090 -10.794903 -23.729295  -3.008088  14.444108   5.942038   1.516387   7.803435   1.631754   2.198990   3.511847  -0.448037   2.553369   1.079295  -1.207826   4.997931  -9.945640   4.216921  44.476225  -0.055827  69.150911   0.049815   0.799752   4.053620  -4.764523   9.540984   7.803655  -5.710365  19.757380  -0.139943 -53.803429   0.001391 -23.193955   0.000398   4.787423  -1.661705  -3.514840   7.456682   3.326081  -0.372894   3.737036  -0.000049   0.000213  -0.746688   0.839382  -0.449783  -0.787594  -0.000009  -0.000810 -17.808273  -2.222946   3.275217  94.344192  -0.003284  -0.002541 -10.133358  -5.441342  -0.896195  -1.032462   0.000005   0.000170
 -2.465497   0.923579   3.771191 -10.835663 -23.682368  -2.987924  14.246976   5.876692   1.539082   7.909496   1.692746   2.178325   3.608617  -0.526556   2.500982   1.104159  -1.266367   4.965637 -10.137219   4.166800  44.289865  -0.052046  69.916605   0.045818   0.794389   4.144365  -4.915480   9.626918   7.928112  -5.622076  19.897878   0.013833 -53.790514   0.001187 -23.120787   0.000480   4.815991  -1.644267  -3.487298   7.392805   3.347689  -0.439075   3.799328  -0.000014   0.000207  -0.705100   0.771353  -0.398576  -0.782721  -0.000007  -0.000648 -17.204639  -2.332493   3.222326  93.609875  -0.001883  -0.001950  -9.955906  -5.502725  -0.842469  -1.119950   0.000124   0.000214
 -2.464533   0.923549   3.770289 -10.842330 -23.608157  -2.979833  14.029689   5.795491   1.592332   7.988954   1.740930   2.161110   3.698474  -0.602701   2.448997   1.130600  -1.329098   4.920729 -10.312997   4.116982  44.107162  -0.048700  70.628934   0.042358   0.789170   4.218430  -5.047738   9.708543   8.051837  -5.535361  20.029827   0.159291 -53.780132   0.001016 -23.056110   0.000528   4.840036  -1.655572  -3.441266   7.288488   3.352218  -0.473274   3.881450   0.000021   0.000220  -0.673020   0.695433  -0.354853  -0.779973  -0.000006  -0.000519 -16.581620  -2.486177   3.218358  92.642542  -0.000459  -0.001663  -9.797182  -5.556748  -0.790071  -1.189159   0.000214   0.000214
 -2.463525   0.923478   3.769357 -10.831500 -23.513167  -2.985194  13.815381   5.708914   1.662303   8.049331   1.777263   2.153256   3.779312  -0.674217   2.401692   1.154242  -1.393426   4.869506 -10.478016   4.067355  43.928798  -0.045555  71.292680   0.039216   0.783925   4.282279  -5.186911   9.781816   8.166049  -5.454456  20.150580   0.293633 -53.771430   0.000869 -22.997375   0.000548   4.862059  -1.678362  -3.391654   7.166000   3.344506  -0.484777   3.963733   0.000050   0.000234  -0.638314   0.613060  -0.314094  -0.778711  -0.000005  -0.000415 -15.975725  -2.649874   3.250696  91.636160   0.000564  -0.001568  -9.651636  -5.605736  -0.740282  -1.249134   0.000265   0.000196
 -2.462452   0.923383   3.768397 -10.812977 -23.406483  -2.998350  13.611682   5.621234   1.737602   8.099215   1.804897   2.151313   3.853442  -0.741090   2.358949   1.175276  -1.456429   4.817078 -10.633010   4.019334  43.757876  -0.042454  71.911338   0.036229   0.778743   4.338662  -5.332170   9.846121   8.269644  -5.379861  20.259825   0.416704 -53.763876   0.000742 -22.944178   0.000545   4.882574  -1.708914  -3.341606   7.035317   3.329074  -0.486659   4.042700   0.000074   0.000246  -0.598313   0.527970  -0.274787  -0.778939  -0.000004  -0.000332 -15.395721  -2.809328   3.301111  90.658879   0.001189  -0.001528  -9.516629  -5.650803  -0.693426  -1.302290   0.000286   0.000172
 -2.461307   0.923275   3.767414 -10.791666 -23.294002  -3.016072  13.420935   5.534684   1.812404   8.143155   1.826150   2.152453   3.922276  -0.803558   2.319969   1.194673  -1.516795   4.766371 -10.777922   3.973652  43.596344  -0.039355  72.488109   0.033338   0.773594   4.389012  -5.477778   9.902315   8.363375  -5.311161  20.358526   0.529316 -53.757281   0.000631 -22.896021   0.000525   4.901805  -1.745911  -3.292379   6.901135   3.308904  -0.486240   4.117640   0.000094   0.000252  -0.552978   0.442669  -0.233193  -0.779946  -0.000003  -0.000266 -14.844175  -2.959733   3.359064  89.734552   0.001514  -0.001479  -9.390800  -5.692546  -0.649494  -1.349967   0.000286   0.000148
 -2.460086   0.923158   3.766413 -10.770342 -23.179208  -3.036990  13.243605   5.450499   1.884072   8.183502   1.842600   2.155062   3.986566  -0.861896   2.284091   1.213197  -1.574110   4.718778 -10.912825   3.930509  43.444924  -0.036278  73.025876   0.030539   0.768422   4.434047  -5.619528   9.951589   8.448394  -5.247848  20.447940   0.632509 -53.751583   0.000534 -22.852332   0.000494   4.919921  -1.787987  -3.244748   6.765918   3.285838  -0.486703   4.188728   0.000110   0.000253  -0.501759   0.358572  -0.192456  -0.782471  -0.000003  -0.000212 -14.321544  -3.099810   3.418984  88.869979   0.001630  -0.001400  -9.273292  -5.731329  -0.608368  -1.393014   0.000273   0.000126
 -2.458852   0.923225   3.765676 -10.758894 -23.106910  -2.964939  13.013432   5.344148   1.894864   8.270838   1.892146   2.084901   4.059927  -0.956227   2.250478   1.212489  -1.622734   4.659342 -10.904935   3.953256  43.304106  -0.030551  73.317081   0.025357   0.765876   4.595795  -5.783802  10.000027   8.548596  -5.188467  20.432557   0.738300 -53.739425   0.000424 -22.856739   0.000385   4.924119  -1.731521  -3.096357   6.662306   3.280487  -0.606118   4.252412   0.000128   0.000241  -0.465422   0.289152  -0.119508  -0.781122  -0.000002  -0.000170 -13.522970  -3.216004   3.364196  87.037097   0.003088  -0.000749  -9.252923  -5.745786  -0.528984  -1.492729   0.000465   0.000160
 -2.457578   0.923238   3.764906 -10.699951 -22.994676  -2.900909  12.765170   5.219621   1.940047   8.322428   1.921240   2.018368   4.122665  -1.046045   2.215053   1.225659  -1.677587   4.589798 -10.883592   3.965727  43.164425  -0.025752  73.573776   0.021055   0.756682   4.667283  -5.898089  10.029647   8.635672  -5.135529  20.403670   0.826527 -53.735352   0.000332 -22.871318   0.000274   4.922849  -1.722549  -2.936417   6.516305   3.253466  -0.693358   4.311845   0.000140   0.000237  -0.424385   0.203018  -0.052155  -0.781354  -0.000002  -0.000136 -12.739762  -3.353326   3.343885  85.003318   0.003970  -0.000356  -9.244152  -5.756979  -0.453674  -1.581908   0.000586   0.000166
 -2.456249   0.923195   3.764082 -10.623585 -22.858750  -2.858547  12.526502   5.088029   2.004805   8.355034   1.933639   1.964975   4.177630  -1.129897   2.183445   1.240218  -1.735039   4.517980 -10.861358   3.972246  43.027723  -0.021799  73.809469   0.017549   0.744893   4.702752  -6.006320  10.044411   8.707239  -5.091835  20.365250   0.900018 -53.736142   0.000257 -22.891187   0.000178   4.919182  -1.750450  -2.782674   6.351906   3.214147  -0.749939   4.367796   0.000148   0.000235  -0.377561   0.108445   0.013792  -0.781617  -0.000001  -0.000109 -11.995366  -3.491457   3.353645  82.993103   0.004101  -0.000121  -9.239101  -5.766513  -0.383037  -1.660234   0.000634   0.000156
 -2.454856   0.923113   3.763215 -10.543850 -22.714483  -2.834862  12.304239   4.955225   2.075810   8.380039   1.935071   1.921217   4.228162  -1.208109   2.155741   1.254317  -1.791454   4.448934 -10.840020   3.975774  42.897391  -0.018517  74.027631   0.014674   0.732310   4.723215  -6.115306  10.048254   8.765734  -5.055743  20.320561   0.961786 -53.739447   0.000198 -22.914065   0.000100   4.914393  -1.802347  -2.636725   6.180892   3.170139  -0.787865   4.421080   0.000153   0.000232  -0.324611   0.012649   0.077596  -0.781827  -0.000001  -0.000087 -11.292143  -3.621688   3.376965  81.080015   0.003763   0.000127  -9.235366  -5.775067  -0.317054  -1.730461   0.000634   0.000144
